<svg xmlns="http://www.w3.org/2000/svg" width="96" height="96" viewBox="0 0 96 96">
  <!-- Background rounded square (white) -->
  <rect width="96" height="96" rx="18" fill="#F2F2F2"/>
  
  <!-- Gmail envelope shape -->
  <path d="M76 30H20c-2.2 0-4 1.8-4 4v38c0 2.2 1.8 4 4 4h56c2.2 0 4-1.8 4-4V34c0-2.2-1.8-4-4-4z" fill="#FFFFFF" stroke="#E5E5E5" stroke-width="1"/>
  
  <!-- Gmail M shape -->
  <path d="M20 30L48 50 76 30H20z" fill="#E54B4B"/>
  <path d="M48 50L20 30v38h56V30L48 50z" fill="none" stroke="#D44638" stroke-width="2"/>
  
  <!-- Red sides -->
  <path d="M76 30L48 50v22h28c2.2 0 4-1.8 4-4V34c0-2.2-1.8-4-4-4z" fill="#D44638" opacity="0.1"/>
  <path d="M20 30L48 50v22H20c-2.2 0-4-1.8-4-4V34c0-2.2 1.8-4 4-4z" fill="#D44638" opacity="0.1"/>
  
  <!-- Plus sign (blue) -->
  <circle cx="66" cy="64" r="14" fill="#4285F4"/>
  <rect x="59" y="62" width="14" height="4" fill="white"/>
  <rect x="64" y="57" width="4" height="14" fill="white"/>
  
  <!-- TAG label (green) -->
  <rect x="24" y="64" width="28" height="14" rx="7" fill="#34A853"/>
  <text x="38" y="76" font-family="Arial, sans-serif" font-weight="bold" font-size="10" text-anchor="middle" fill="white">TAG</text>
</svg>
